<svg xmlns="http://www.w3.org/2000/svg" viewBox="0 0 1125 2436" width="1125" height="2436">
  <defs><linearGradient id="bg" x1="0%" y1="0%" x2="100%" y2="100%"><stop offset="0%" stop-color="#0b0b14"/><stop offset="50%" stop-color="#1a1a2e"/><stop offset="100%" stop-color="#0f3460"/></linearGradient></defs>
  <rect width="1125" height="2436" fill="url(#bg)"/>
  <g transform="translate(413, 731) scale(1.1765)">
<path d="M72.6592 181.016C81.3073 181.016 88.3184 188.027 88.3184 196.675C88.3183 205.323 81.3073 212.334 72.6592 212.334C64.011 212.334 57 205.323 57 196.675C57 188.027 64.011 181.016 72.6592 181.016Z" fill="#8CC73A"/>
<path d="M72.6592 94.8916C80.7513 94.8917 87.4087 101.03 88.2314 108.904L177.243 181.841C178.821 181.306 180.513 181.016 182.271 181.016C190.92 181.016 197.931 188.027 197.931 196.675C197.931 205.323 190.92 212.334 182.271 212.334C173.623 212.334 166.612 205.323 166.612 196.675C166.612 196.365 166.622 196.057 166.64 195.751L79.7207 124.528C77.5988 125.602 75.2001 126.21 72.6592 126.21C64.0111 126.21 57.0001 119.199 57 110.551C57 101.903 64.011 94.8916 72.6592 94.8916Z" fill="#8CC73A"/>
<path d="M72.6592 141.868C79.145 141.868 84.4031 147.126 84.4033 153.612C84.4033 155.242 84.0707 156.794 83.4707 158.205L103.036 174.237C104.516 173.564 106.16 173.187 107.892 173.187C114.378 173.187 119.636 178.445 119.636 184.931C119.636 191.417 114.378 196.675 107.892 196.675C101.406 196.675 96.1475 191.417 96.1475 184.931C96.1475 182.703 96.7668 180.62 97.8438 178.846L79.0615 163.455C77.2196 164.656 75.0219 165.356 72.6592 165.356C66.173 165.356 60.9141 160.098 60.9141 153.612C60.9143 147.126 66.1732 141.868 72.6592 141.868Z" fill="#8CC73A"/>
<path d="M72.6592 44C81.3073 44.0001 88.3184 51.0111 88.3184 59.6592C88.3183 60.6273 88.2287 61.5746 88.0605 62.4941L176.644 135.081C178.39 134.408 180.288 134.039 182.271 134.039C190.92 134.039 197.931 141.05 197.931 149.698C197.931 158.346 190.92 165.356 182.271 165.356C173.623 165.356 166.612 158.346 166.612 149.698C166.612 149.619 166.613 149.539 166.614 149.46L75.7568 75.0107C74.7555 75.2117 73.7197 75.3183 72.6592 75.3184C64.0111 75.3184 57.0001 68.3073 57 59.6592C57 51.011 64.011 44 72.6592 44Z" fill="#8CC73A"/>
<path d="M139.209 59.6592C145.695 59.6592 150.953 64.9172 150.953 71.4033C150.953 72.3015 150.848 73.1752 150.657 74.0156L177.417 95.9424C178.897 95.2694 180.54 94.8916 182.271 94.8916C188.758 94.8916 194.016 100.15 194.016 106.636C194.016 113.122 188.758 118.38 182.271 118.38C175.785 118.38 170.527 113.122 170.527 106.636C170.527 104.408 171.148 102.325 172.225 100.551L147.178 80.0273C145.084 81.9629 142.285 83.1475 139.209 83.1475C132.723 83.1474 127.465 77.8893 127.465 71.4033C127.465 64.9172 132.723 59.6593 139.209 59.6592Z" fill="#8CC73A"/>
<path d="M182.271 44C190.92 44 197.931 51.011 197.931 59.6592C197.931 68.3073 190.92 75.3183 182.271 75.3184C173.623 75.3184 166.612 68.3073 166.612 59.6592C166.612 51.011 173.623 44 182.271 44Z" fill="#8CC73A"/>
<path d="M240 127.5C240 65.368 189.632 15 127.5 15C65.368 15 15 65.368 15 127.5C15 189.632 65.368 240 127.5 240V255C57.0837 255 0 197.916 0 127.5C0 57.0837 57.0837 0 127.5 0C197.916 0 255 57.0837 255 127.5C255 197.916 197.916 255 127.5 255V240C189.632 240 240 189.632 240 127.5Z" fill="#8CC73A"/>
  </g>
  <text x="562.5" y="1091" text-anchor="middle" font-family="Poppins, Arial, sans-serif" font-weight="700" font-size="36" fill="#ffffff" letter-spacing="3">NODE<tspan fill="#8CC73A" font-weight="800">509</tspan></text>
  <text x="562.5" y="2192" text-anchor="middle" font-family="Poppins, Arial, sans-serif" font-weight="400" font-size="16" fill="rgba(255,255,255,0.4)">Platfom Evenman #1 an Ayiti</text>
</svg>