<svg width="141" height="169" viewBox="0 0 141 169" fill="none" xmlns="http://www.w3.org/2000/svg">
<path d="M15.6592 137.016C24.3073 137.016 31.3184 144.027 31.3184 152.675C31.3183 161.323 24.3073 168.334 15.6592 168.334C7.011 168.334 3.24726e-05 161.323 0 152.675C0 144.027 7.01098 137.016 15.6592 137.016ZM15.6592 50.8916C23.7513 50.8917 30.4087 57.03 31.2314 64.9043L120.243 137.841C121.821 137.306 123.513 137.016 125.271 137.016C133.92 137.016 140.931 144.027 140.931 152.675C140.931 161.323 133.92 168.334 125.271 168.334C116.623 168.334 109.612 161.323 109.612 152.675C109.612 152.365 109.622 152.057 109.64 151.751L22.7207 80.5283C20.5988 81.6025 18.2001 82.2099 15.6592 82.21C7.01106 82.21 0.000129373 75.1989 0 66.5508C0 57.9026 7.01098 50.8916 15.6592 50.8916ZM15.6592 97.8682C22.145 97.8684 27.4031 103.126 27.4033 109.612C27.4033 111.242 27.0707 112.794 26.4707 114.205L46.0361 130.237C47.5163 129.564 49.1595 129.187 50.8916 129.187C57.3778 129.187 62.6357 134.445 62.6357 140.931C62.6357 147.417 57.3777 152.675 50.8916 152.675C44.4056 152.675 39.1475 147.417 39.1475 140.931C39.1475 138.703 39.7668 136.62 40.8438 134.846L22.0615 119.455C20.2196 120.656 18.0219 121.356 15.6592 121.356C9.17303 121.356 3.91406 116.098 3.91406 109.612C3.91428 103.126 9.17316 97.8682 15.6592 97.8682ZM15.6592 0C24.3073 0.00012318 31.3184 7.01106 31.3184 15.6592C31.3183 16.6273 31.2287 17.5746 31.0605 18.4941L119.644 91.0811C121.39 90.4081 123.288 90.0391 125.271 90.0391C133.92 90.0391 140.931 97.05 140.931 105.698C140.931 114.346 133.92 121.356 125.271 121.356C116.623 121.356 109.612 114.346 109.612 105.698C109.612 105.619 109.613 105.539 109.614 105.46L18.7568 31.0107C17.7555 31.2117 16.7197 31.3183 15.6592 31.3184C7.01106 31.3184 0.000123188 24.3073 0 15.6592C0 7.01098 7.01098 0 15.6592 0ZM82.209 15.6592C88.6951 15.6592 93.9531 20.9172 93.9531 27.4033C93.9531 28.3015 93.8482 29.1752 93.6572 30.0156L120.417 51.9424C121.897 51.2694 123.54 50.8916 125.271 50.8916C131.758 50.8916 137.016 56.1496 137.016 62.6357C137.016 69.1219 131.758 74.3799 125.271 74.3799C118.785 74.3797 113.527 69.1218 113.527 62.6357C113.527 60.4082 114.148 58.3254 115.225 56.5508L90.1777 36.0273C88.0839 37.9629 85.2852 39.1475 82.209 39.1475C75.723 39.1474 70.465 33.8893 70.4648 27.4033C70.4648 20.9172 75.7229 15.6593 82.209 15.6592ZM125.271 0C133.92 1.59776e-05 140.931 7.01099 140.931 15.6592C140.931 24.3073 133.92 31.3183 125.271 31.3184C116.623 31.3184 109.612 24.3073 109.612 15.6592C109.612 7.01098 116.623 0 125.271 0Z" fill="#22C55E"/>
</svg>
